<svg width="94" height="26" viewBox="0 0 94 26" fill="none" xmlns="http://www.w3.org/2000/svg">
<path d="M9.01016 3.14376H11.0541C12.2989 2.96038 13.5701 3.12161 14.7297 3.60993C16.1845 4.48517 17.2397 5.89423 17.6702 7.53651C17.975 8.39713 17.975 8.39713 18.7101 8.09233H19.2838V1.27908H0.0453621V2.48036H0.834265C1.17709 2.47799 1.51609 2.55245 1.82636 2.69828C2.13663 2.84411 2.41029 3.05759 2.62723 3.32306C3.36234 4.50641 3.48785 5.8332 3.48785 12.7361C3.48785 20.0693 3.32648 21.8623 2.62723 22.7767C2.4546 23.0118 2.2311 23.2048 1.97341 23.3414C1.71573 23.478 1.43052 23.5546 1.13907 23.5656C0.0453622 23.7628 0.0453621 23.7449 0.0453621 24.229C-0.0151207 24.3909 -0.0151207 24.5691 0.0453621 24.731H12.1837C12.264 24.5726 12.3059 24.3976 12.3059 24.22C12.3059 24.0424 12.264 23.8674 12.1837 23.709C11.8897 23.6272 11.5901 23.5673 11.2872 23.5297C10.9596 23.4908 10.6358 23.4248 10.319 23.3325C9.86543 23.0013 9.50611 22.5576 9.27656 22.045C9.04701 21.5325 8.95519 20.9689 9.01016 20.41C8.83087 19.2266 8.74122 17.0571 8.74122 15.2642V13.8477H9.4584C10.3519 13.8204 11.2449 13.9169 12.112 14.1346C12.5274 14.3913 12.8809 14.7365 13.1475 15.1456C13.414 15.5547 13.587 16.0176 13.6539 16.5013L13.8153 17.0571H14.909V9.11432H13.9049L13.7436 9.88529C13.6757 10.3799 13.4927 10.8517 13.2093 11.2627C12.926 11.6738 12.5501 12.0126 12.112 12.252C11.6877 12.3783 11.2407 12.4089 10.8031 12.3416H8.74122V10.4052C8.74122 8.39713 8.8488 4.16575 8.92052 3.50235L9.01016 3.14376ZM92.9207 17.3619C92.0732 15.9979 90.7513 14.9953 89.2093 14.547C88.0271 14.1775 86.9343 13.567 85.9999 12.754C85.7896 12.5506 85.6323 12.2989 85.5417 12.0208C85.451 11.7426 85.4298 11.4465 85.4799 11.1583C85.4813 10.593 85.707 10.0513 86.1075 9.65221C86.3789 9.36795 86.7224 9.16275 87.1013 9.05854C87.4803 8.95433 87.8804 8.95502 88.259 9.06053C89.0428 9.28391 89.7516 9.71515 90.3103 10.3086C90.869 10.902 91.2568 11.6355 91.4325 12.4313C91.7194 13.2381 91.7553 13.2381 92.2752 13.023L92.598 12.8975V8.43299L92.3649 8.32542C90.5997 7.70546 88.7273 7.4493 86.8605 7.57237C85.2529 7.6131 83.7183 8.25249 82.5574 9.36533C82.0309 9.8582 81.6185 10.4602 81.349 11.1292C81.0796 11.7981 80.9596 12.5179 80.9975 13.2381C81.0076 14.3392 81.4447 15.3934 82.2167 16.1786C83.0699 17.0177 84.1168 17.6335 85.2648 17.9715C88.0438 19.0652 88.8507 19.7645 88.8507 21.0375C88.8626 21.5743 88.6916 22.0993 88.3658 22.5261C88.04 22.9529 87.5787 23.2562 87.0577 23.3863C86.4317 23.5238 85.7832 23.5238 85.1572 23.3863C84.3375 23.0681 83.6056 22.5589 83.0225 21.9009C82.4393 21.2429 82.0217 20.4551 81.8043 19.6031L81.5713 19.0294H81.2485C81.0943 19.0408 80.9429 19.0772 80.8003 19.137H80.621V24.229H80.9258C82.1371 24.6319 83.3869 24.9083 84.6552 25.0537H86.4481C87.2257 25.1108 88.0073 25.0381 88.761 24.8386C89.7179 24.662 90.6119 24.2381 91.3542 23.609C92.0965 22.98 92.6613 22.1676 92.9924 21.2527C93.2064 20.7416 93.3161 20.193 93.3152 19.639C93.3858 18.8585 93.2498 18.0732 92.9207 17.3619ZM76.031 8.09233C74.9566 7.64124 73.799 7.42242 72.634 7.45023C71.4691 7.47804 70.3232 7.75185 69.2716 8.2537C68.283 8.73723 67.4069 9.42267 66.6997 10.2658C65.9924 11.1089 65.4699 12.0909 65.1657 13.1485C64.7779 14.3022 64.6136 15.5192 64.6816 16.7344C64.6687 17.3956 64.7228 18.0564 64.8429 18.7067C65.1325 20.3056 65.9044 21.7777 67.0551 22.9251C68.2057 24.0725 69.6799 24.8404 71.2797 25.1255C72.3214 25.2567 73.3756 25.2567 74.4174 25.1255C75.4984 24.9349 76.533 24.5393 77.4654 23.96C78.2366 23.5277 78.8894 22.9118 79.3659 22.1671C79.3353 22.0502 79.2815 21.9407 79.2075 21.8452C79.1336 21.7497 79.0411 21.6701 78.9356 21.6112C78.731 21.6854 78.5378 21.788 78.3619 21.9161C77.4701 22.5038 76.417 22.7984 75.3497 22.7587C74.6413 22.8066 73.9311 22.6963 73.2706 22.4358C72.61 22.1754 72.0157 21.7712 71.5307 21.2527C71.1555 20.9042 70.8458 20.4912 70.6163 20.0334C70.0591 18.9188 69.7589 17.6935 69.7377 16.4475V15.7483H79.6707V15.3897C79.6927 15.0314 79.6927 14.6722 79.6707 14.3139C79.6672 13.0479 79.3285 11.8054 78.6893 10.7126C78.05 9.61989 77.1328 8.71583 76.031 8.09233ZM71.0287 14.296H69.7736V13.2381C70.186 10.5308 71.208 8.91709 72.463 8.91709C73.7181 8.91709 74.256 10.5128 74.4891 13.4354V14.2601H73.4133L71.0287 14.296ZM45.2459 7.50065C44.6264 7.47663 44.0105 7.60596 43.4529 7.87717C42.2411 8.46567 41.2623 9.44446 40.6738 10.6563L40.4408 11.0866V7.50065H40.3511C40.136 7.50065 33.502 8.82744 33.2868 8.91709C33.0717 9.00674 33.1434 9.02467 33.1434 9.3474C33.1434 9.67013 33.1434 9.72392 33.2868 9.74185L33.9861 9.88529C34.1819 9.89009 34.3741 9.93941 34.5481 10.0295C34.722 10.1196 34.8732 10.2481 34.9902 10.4052C35.4384 10.9969 35.528 12.0368 35.528 16.4655C35.6166 18.4592 35.5326 20.4568 35.277 22.436C35.2169 22.7345 35.0655 23.0069 34.8439 23.2156C34.6223 23.4244 34.3414 23.5592 34.0399 23.6014L33.4303 23.7269H33.1972V24.229C33.1322 24.3962 33.1322 24.5817 33.1972 24.7489H43.2198V24.229C43.2546 24.0574 43.2546 23.8806 43.2198 23.709C42.6164 23.6855 42.0163 23.6075 41.4269 23.4759C41.1059 23.308 40.8433 23.0469 40.6737 22.7268C40.5041 22.4068 40.4354 22.0428 40.4766 21.683C40.3332 20.6431 40.2615 17.595 40.2973 15.2642C40.3332 12.9333 40.2973 12.7899 40.4945 12.6285C41.0945 12.1685 41.8369 11.9337 42.5923 11.9651C43.3043 11.9807 44.0034 12.1585 44.6363 12.4851C44.8557 12.6069 45.091 12.6974 45.3355 12.754C45.3355 12.754 47.1285 8.41506 47.1285 8.21784C46.8991 7.95122 46.6068 7.74601 46.278 7.62078C45.9493 7.49556 45.5946 7.45427 45.2459 7.50065ZM33.1613 15.0311C33.0988 13.7498 32.7309 12.5021 32.0884 11.3918C31.446 10.2815 30.5475 9.34086 29.4678 8.64815C28.1848 7.95597 26.7573 7.57432 25.3 7.53384C23.8427 7.49336 22.3963 7.79518 21.0768 8.41506C19.2112 9.39882 17.8026 11.0711 17.1502 13.0768C16.4763 15.3223 16.4763 17.7162 17.1502 19.9617C17.5035 21.189 18.1637 22.3059 19.0687 23.207C20.1957 24.3067 21.649 25.0113 23.2104 25.2151C24.2127 25.2989 25.2203 25.2989 26.2226 25.2151C26.5914 25.159 26.9566 25.0812 27.3163 24.982C28.7757 24.5738 30.0887 23.7583 31.1015 22.6311C32.1144 21.5039 32.7854 20.1116 33.0358 18.617C33.2148 17.4304 33.2569 16.2273 33.1613 15.0311ZM25.7026 23.9959C23.9097 24.5338 22.5649 22.7946 22.1167 19.137C21.9521 17.222 21.9521 15.2965 22.1167 13.3816C22.4753 10.4411 23.3897 8.95295 24.8061 8.95295C25.0919 8.93524 25.3778 8.98623 25.6398 9.10164C25.9018 9.21706 26.1324 9.39355 26.3122 9.61635C27.5135 10.8176 28.1052 13.2023 28.1052 16.7882C28.2544 18.8176 27.9354 20.8542 27.1729 22.7408C26.8361 23.291 26.3152 23.704 25.7026 23.9062V23.9959ZM57.9759 7.85924C57.47 7.79414 56.9578 7.79414 56.4519 7.85924C55.4807 7.85842 54.5207 8.06631 53.6369 8.46885L53.0811 8.70194V4.81121C53.1783 3.49817 53.1783 2.17974 53.0811 0.866699C52.866 0.866699 46.0169 2.17556 45.9093 2.22935C45.8564 2.36172 45.8564 2.50936 45.9093 2.64173C45.9093 3.01825 45.9093 3.00032 46.7161 3.17962C46.9427 3.23042 47.1602 3.31504 47.3616 3.43063C47.7116 3.75975 47.9445 4.19414 48.025 4.66778C48.2291 6.03226 48.2952 7.41385 48.2222 8.79158V24.5338L48.7063 24.6414C49.4235 24.8027 51.4495 25.1434 52.1129 25.2151C53.4376 25.3205 54.7686 25.3205 56.0933 25.2151C57.5637 25.0649 58.9652 24.5164 60.1468 23.6285C61.3284 22.7407 62.2454 21.5473 62.799 20.1769C63.129 19.2973 63.3576 18.383 63.4803 17.4516C63.587 16.19 63.5449 14.9202 63.3548 13.6684C63.1624 12.2653 62.5431 10.9553 61.5809 9.91608C60.6187 8.87688 59.3601 8.1588 57.9759 7.85924ZM53.2784 23.6911C53.2784 23.458 53.0991 15.6048 53.1349 12.4672V10.0108L53.6549 9.88529C54.0057 9.83503 54.3619 9.83503 54.7127 9.88529C55.1007 9.84584 55.491 9.93396 55.8244 10.1363C56.4939 10.5984 57.05 11.2064 57.4506 11.9145C57.8512 12.6226 58.086 13.4123 58.1373 14.2243C58.2679 15.5299 58.2679 16.8452 58.1373 18.1508C58.03 20.0484 57.2988 21.8574 56.0574 23.2966C55.7051 23.6313 55.2626 23.8557 54.7844 23.9421C54.4226 24.005 54.0526 24.005 53.6907 23.9421C53.3501 23.9421 53.3501 23.8345 53.3501 23.6911H53.2784Z" fill="#8B8B8B"/>
</svg>
