<svg width="181" height="22" viewBox="0 0 181 22" fill="none" xmlns="http://www.w3.org/2000/svg">
<path d="M8.42437 13.2751L1.68343 4.6583H0V21.7884H1.80368V7.6548L8.42437 16.0311L15.0451 7.6548V21.7644H16.8487V4.62463L15.1605 4.66311L8.42437 13.2751Z" fill="black"/>
<path d="M26.7632 4.65833L19.3008 21.7884H21.2488L23.6705 16.2692H31.5393L33.9611 21.7884H35.909L28.4466 4.65833H26.7632ZM24.404 14.4631L27.5712 7.21474L30.7577 14.4631H24.404Z" fill="black"/>
<path d="M40.165 4.65833H38.3613V21.7884H40.165V4.65833Z" fill="black"/>
<path d="M50.0143 12.3876L48.8791 12.0557C46.6209 11.4232 45.5243 10.4036 45.5243 8.93657C45.5243 8.46281 45.6133 8.05397 45.7912 7.71969C45.9716 7.3806 46.2121 7.09923 46.5103 6.88038C46.8181 6.65432 47.1693 6.48357 47.5564 6.37295C47.9581 6.25751 48.3789 6.19258 48.8046 6.17815C49.3337 6.16372 49.8459 6.22865 50.3317 6.37054C50.7958 6.50762 51.1806 6.71203 51.474 6.97898L51.7746 7.25314L52.9578 5.98095L52.6644 5.69958C52.2147 5.2691 51.6279 4.93722 50.9161 4.71837C50.2259 4.50434 49.5044 4.39612 48.7685 4.39612C48.1432 4.39612 47.5228 4.4851 46.9288 4.65825C46.3251 4.83381 45.7744 5.10797 45.2934 5.47111C44.8028 5.84146 44.4036 6.31763 44.1054 6.89C43.8048 7.46717 43.6509 8.15498 43.6509 8.93176C43.6509 10.1318 44.0862 11.1491 44.9447 11.9571C45.7672 12.7291 46.936 13.3111 48.4198 13.6838L49.377 14.0037C50.4062 14.3668 51.1421 14.7973 51.5678 15.2831C51.9718 15.7472 52.1763 16.4158 52.1763 17.272C52.1763 17.7265 52.0801 18.1281 51.8901 18.4696C51.6953 18.8207 51.4307 19.1213 51.1061 19.3666C50.7718 19.6167 50.3798 19.8163 49.9445 19.9558C49.502 20.1001 49.0379 20.1795 48.5617 20.1915C47.8883 20.2204 47.2198 20.1266 46.58 19.9101C45.962 19.7009 45.4449 19.3666 45.0457 18.9121L44.7403 18.5634L43.5547 19.8813L43.8024 20.1578C44.3748 20.7975 45.1083 21.2785 45.9884 21.5887C46.7652 21.8629 47.5781 22 48.4006 22C48.4871 22 48.5761 21.9976 48.6627 21.9952C49.3192 21.9783 49.9758 21.8653 50.6083 21.6609C51.2504 21.4517 51.8251 21.1462 52.3133 20.7494C52.8039 20.3526 53.208 19.862 53.511 19.2969C53.8212 18.7197 53.9799 18.0367 53.9799 17.2744C53.9799 16.0166 53.6505 14.9825 52.9987 14.2033C52.359 13.4409 51.3562 12.8301 50.0143 12.3876Z" fill="black"/>
<path d="M71.1736 7.01753C70.3872 6.22151 69.4493 5.58902 68.3863 5.13449C67.321 4.67997 66.1738 4.4491 64.9762 4.4491C63.7762 4.4491 62.629 4.67997 61.5661 5.13449C60.5055 5.58902 59.5652 6.22151 58.7692 7.01513C57.9755 7.80875 57.3406 8.74665 56.8885 9.8C56.434 10.8558 56.2031 12.0077 56.2031 13.2246C56.2031 14.4391 56.434 15.591 56.8885 16.6492C57.343 17.7025 57.9755 18.638 58.7692 19.4316C59.5652 20.2276 60.5055 20.8601 61.5661 21.3123C62.629 21.7668 63.7762 21.9977 64.9762 21.9977C66.1762 21.9977 67.3234 21.7668 68.3863 21.3123C69.4469 20.8577 70.3848 20.2252 71.1736 19.4292C71.96 18.6356 72.5901 17.7001 73.0519 16.6492C73.516 15.591 73.7493 14.4391 73.7493 13.2222C73.7493 12.0077 73.5136 10.8533 73.0519 9.79519C72.5925 8.74425 71.96 7.81115 71.1736 7.01753ZM71.948 13.2005C71.948 14.1625 71.7628 15.0812 71.3997 15.9253C71.0342 16.7742 70.5339 17.5173 69.9135 18.1378C69.293 18.7583 68.5499 19.2561 67.701 19.624C66.8568 19.9872 65.9406 20.1723 64.9762 20.1723C64.0118 20.1723 63.0956 19.9872 62.2515 19.624C61.4025 19.2585 60.6594 18.7583 60.0389 18.1378C59.4185 17.5173 58.9183 16.7742 58.5527 15.9253C58.1896 15.0812 58.0044 14.1649 58.0044 13.2005C58.0044 12.2362 58.1896 11.3199 58.5527 10.4758C58.9183 9.62685 59.4185 8.88374 60.0389 8.26327C60.6594 7.64281 61.4025 7.14499 62.2515 6.77704C63.0956 6.4139 64.0142 6.22872 64.9762 6.22872C65.9382 6.22872 66.8568 6.4139 67.701 6.77704C68.5499 7.14258 69.293 7.64281 69.9135 8.26327C70.5339 8.88374 71.0342 9.62685 71.3997 10.4758C71.7628 11.3199 71.948 12.2362 71.948 13.2005Z" fill="black"/>
<path d="M87.6913 18.3926L78.4444 4.62939L76.7441 4.66787V21.7884H78.5478V8.02993L87.6696 21.6056L87.7923 21.7884H89.4949V4.65825H87.6913V18.3926Z" fill="black"/>
<path d="M116.079 12.3876L114.944 12.0557C112.685 11.4232 111.589 10.4036 111.589 8.93657C111.589 8.46281 111.678 8.05397 111.856 7.71969C112.036 7.3806 112.277 7.09923 112.575 6.88038C112.883 6.65432 113.236 6.48357 113.621 6.37295C114.02 6.25751 114.443 6.19258 114.869 6.17815C115.396 6.16372 115.91 6.22865 116.396 6.37054C116.86 6.50762 117.245 6.71203 117.541 6.97898L117.841 7.25314L119.025 5.98095L118.731 5.69958C118.282 5.2691 117.695 4.93722 116.983 4.71837C116.293 4.50434 115.571 4.39612 114.835 4.39612C114.21 4.39612 113.59 4.4851 112.996 4.65825C112.39 4.83381 111.841 5.10797 111.36 5.47111C110.87 5.84146 110.47 6.31763 110.172 6.89C109.872 7.46718 109.718 8.15498 109.718 8.93176C109.718 10.1318 110.153 11.1515 111.012 11.9571C111.832 12.7291 113.003 13.3111 114.487 13.6838L115.444 14.0037C116.473 14.3668 117.209 14.7973 117.635 15.2831C118.039 15.7472 118.243 16.4158 118.243 17.272C118.243 17.7265 118.147 18.1281 117.957 18.4696C117.76 18.8207 117.498 19.1213 117.173 19.3666C116.836 19.6167 116.447 19.8163 116.011 19.9558C115.569 20.1001 115.107 20.1795 114.629 20.1915C113.955 20.2204 113.287 20.1266 112.647 19.9101C112.029 19.7033 111.514 19.3666 111.113 18.9097L110.807 18.561L109.619 19.8789L109.867 20.1554C110.439 20.7951 111.175 21.2761 112.053 21.5863C112.83 21.8605 113.643 21.9976 114.465 21.9976C114.552 21.9976 114.641 21.9952 114.727 21.9928C115.384 21.9759 116.04 21.8629 116.673 21.6585C117.315 21.4493 117.89 21.1438 118.378 20.747C118.868 20.3502 119.272 19.8596 119.575 19.2945C119.886 18.7173 120.044 18.0367 120.044 17.272C120.044 16.0142 119.715 14.9801 119.063 14.2009C118.423 13.4409 117.418 12.8301 116.079 12.3876Z" fill="black"/>
<path d="M128.605 4.65833L121.143 21.7884H123.088L125.51 16.2692H133.379L135.8 21.7884H137.748L130.284 4.65833H128.605ZM126.243 14.4631L129.411 7.21474L132.597 14.4631H126.243Z" fill="black"/>
<path d="M150.9 14.0877C150.581 13.7078 150.196 13.3735 149.758 13.0969C149.585 12.9887 149.407 12.8901 149.222 12.8011C149.66 12.5101 150.04 12.1542 150.355 11.7381C150.874 11.0552 151.139 10.2134 151.139 9.24186C151.139 8.53001 150.999 7.88069 150.725 7.31554C150.453 6.75279 150.071 6.267 149.59 5.87259C149.118 5.48541 148.561 5.18238 147.933 4.97316C147.31 4.76634 146.644 4.66052 145.951 4.66052H140.066V21.7906H146.721C147.433 21.7906 148.111 21.6776 148.736 21.4515C149.366 21.2255 149.924 20.896 150.398 20.4752C150.872 20.0519 151.252 19.5396 151.521 18.9553C151.793 18.3661 151.932 17.7095 151.932 17.0001C151.932 16.4421 151.841 15.9082 151.663 15.4152C151.482 14.9174 151.225 14.4725 150.9 14.0877ZM141.844 13.9146H146.579C147.074 13.9146 147.541 13.9891 147.969 14.1358C148.39 14.2801 148.76 14.4894 149.068 14.7563C149.371 15.0208 149.616 15.3431 149.792 15.7159C149.967 16.0862 150.056 16.5095 150.056 16.9736C150.056 17.4354 149.967 17.8538 149.794 18.2145C149.619 18.5801 149.373 18.8999 149.068 19.1645C148.76 19.4314 148.392 19.6406 147.969 19.7849C147.541 19.9316 147.072 20.0062 146.579 20.0062H141.844V13.9146ZM145.809 12.1109H141.865V6.43774H145.831C146.317 6.43774 146.783 6.50268 147.216 6.63014C147.637 6.75519 148.007 6.93796 148.315 7.17605C148.613 7.40932 148.854 7.70272 149.027 8.04903C149.2 8.39293 149.287 8.80176 149.287 9.2635C149.287 9.72524 149.203 10.1365 149.037 10.4828C148.871 10.8291 148.635 11.1249 148.334 11.363C148.029 11.6083 147.661 11.7935 147.24 11.9185C146.81 12.046 146.326 12.1109 145.809 12.1109Z" fill="black"/>
<path d="M163.107 13.8234C163.672 13.5781 164.169 13.2438 164.586 12.8278C165.002 12.4117 165.331 11.9139 165.562 11.3536C165.79 10.7932 165.906 10.1704 165.906 9.49698C165.906 8.77311 165.769 8.10214 165.497 7.49851C165.225 6.89488 164.845 6.37783 164.367 5.95938C163.895 5.54573 163.328 5.22107 162.683 4.99501C162.044 4.77135 161.344 4.65833 160.601 4.65833H154.877V21.7884H156.681V14.3357H159.932L164.708 21.7884H166.829L161.943 14.1865C162.351 14.1024 162.741 13.9821 163.107 13.8234ZM160.627 12.5777L156.683 12.556V6.462H160.627C161.122 6.462 161.589 6.53656 162.017 6.68325C162.44 6.82995 162.811 7.03437 163.119 7.2965C163.419 7.55142 163.662 7.87127 163.838 8.24884C164.013 8.62881 164.102 9.05448 164.102 9.51863C164.102 9.99961 164.016 10.4325 163.847 10.8029C163.679 11.1732 163.441 11.4882 163.14 11.7408C162.832 12.0005 162.462 12.2073 162.039 12.354C161.611 12.5031 161.137 12.5777 160.627 12.5777Z" fill="black"/>
<path d="M171.841 20.0305V13.7296H180.53V11.9716H171.841V6.41391H180.575V4.65833H170.037V21.7884H180.623V20.0305H171.841Z" fill="black"/>
<path d="M177.692 0H175.169L173.23 3.57369H175.087L177.692 0Z" fill="black"/>
<path d="M97.337 10.8269C97.1783 10.7571 97.0243 10.6994 96.868 10.6537C96.5097 10.5479 96.0912 10.495 95.6271 10.495C94.4535 10.495 93.5372 10.8173 92.9048 11.4546C92.217 12.1472 91.873 13.2101 91.8851 14.6098C91.8947 15.9613 92.2073 16.9834 92.811 17.6448C93.4266 18.3205 94.3741 18.662 95.6271 18.662C96.0672 18.662 96.5073 18.5899 96.9306 18.448C97.0869 18.3951 97.236 18.3374 97.3779 18.27V18.5466H98.7583V7.76062H97.337V10.8269ZM97.3538 16.7838C97.2961 16.8247 97.2312 16.8656 97.159 16.9016C97.0171 16.9762 96.8632 17.0411 96.7021 17.0964C96.5386 17.1518 96.3678 17.195 96.1947 17.2239C96.0239 17.2528 95.858 17.2672 95.7017 17.2672C94.8142 17.2672 94.201 17.058 93.8763 16.6491C93.53 16.209 93.3521 15.5212 93.3521 14.6074C93.3521 14.1504 93.3954 13.7392 93.4819 13.3905C93.5613 13.0682 93.6936 12.7917 93.8715 12.568C94.0471 12.3516 94.2707 12.188 94.5593 12.0726C94.8599 11.95 95.2423 11.8898 95.6992 11.8898C96.0504 11.8898 96.4015 11.9355 96.7382 12.0245C96.9811 12.0894 97.1951 12.1784 97.3779 12.2891L97.3538 16.7838Z" fill="black"/>
<path d="M106.823 11.6157C106.506 11.3031 106.107 11.0386 105.643 10.8293C105.169 10.6153 104.625 10.5071 104.029 10.5071C103.461 10.5071 102.923 10.6177 102.427 10.8341C101.937 11.0482 101.501 11.344 101.133 11.7095C100.765 12.0775 100.472 12.5152 100.263 13.0058C100.051 13.5012 99.9453 14.0327 99.9453 14.5906C99.9453 15.1798 100.061 15.7305 100.289 16.2283C100.515 16.7189 100.821 17.1518 101.198 17.515C101.576 17.8781 102.023 18.1643 102.528 18.3615C103.031 18.5611 103.565 18.6597 104.118 18.6597C104.349 18.6597 104.589 18.6477 104.83 18.6212C105.08 18.5948 105.335 18.5443 105.585 18.4721C105.84 18.3976 106.092 18.2917 106.333 18.1595C106.576 18.0248 106.811 17.8468 107.035 17.6352L107.336 17.349L106.362 16.339L106.066 16.6276C105.78 16.9065 105.481 17.0773 105.157 17.147C104.789 17.2264 104.44 17.2649 104.118 17.2649C103.745 17.2649 103.394 17.1975 103.069 17.0676C102.745 16.9354 102.456 16.7526 102.216 16.5241C101.975 16.2957 101.78 16.0239 101.638 15.7113C101.554 15.5285 101.494 15.3337 101.46 15.1293H106.054C106.547 15.1293 106.941 14.997 107.227 14.7373C107.514 14.4776 107.677 14.1529 107.716 13.7705C107.752 13.4266 107.692 13.0563 107.54 12.6667C107.388 12.2891 107.148 11.9356 106.823 11.6157ZM101.484 13.7513C101.528 13.595 101.585 13.4411 101.658 13.2944C101.799 13.0106 101.989 12.7629 102.22 12.5561C102.454 12.3468 102.725 12.1785 103.033 12.0534C103.331 11.9308 103.663 11.8707 104.017 11.8707C104.301 11.8707 104.558 11.9043 104.786 11.9693C105.015 12.0342 105.222 12.1232 105.395 12.2314C105.573 12.3396 105.722 12.4599 105.845 12.5897C105.965 12.7172 106.059 12.8495 106.126 12.9841C106.191 13.114 106.232 13.2415 106.251 13.3617C106.265 13.4603 106.261 13.5397 106.239 13.5998C106.222 13.6479 106.196 13.6791 106.155 13.708C106.111 13.7369 106.03 13.7513 105.929 13.7513H101.484Z" fill="black"/>
</svg>
