<svg width="70" height="28" viewBox="0 0 70 28" fill="none" xmlns="http://www.w3.org/2000/svg">
<path fill-rule="evenodd" clip-rule="evenodd" d="M2.12699 27.5556H0V27.9683H11.7778V20.5397H11.4286C11.4286 20.5397 11.4286 24.8254 10 26.2222C8.79367 27.4286 7.52382 27.5238 5.46033 27.5238V13.8413C5.46033 13.8413 6.8889 13.746 7.58732 14.4444C8.66668 15.5238 8.79367 16.9206 8.79367 18.8571H9.17462V8.38095H8.79367C8.79367 10.3175 8.69843 11.7143 7.58732 12.7937C6.8889 13.4921 5.46033 13.3968 5.46033 13.3968V0.412698C7.52382 0.412698 8.50795 0.539683 9.7143 1.71429C11.1111 3.11111 11.1429 7.39683 11.1429 7.39683H11.4921V0H0V0.412698H2.12699V27.5556Z" fill="#8B8B8B"/>
<path fill-rule="evenodd" clip-rule="evenodd" d="M25.1439 0.412698V27.5556C27.2074 27.5556 28.4772 27.4286 29.6835 26.254C31.0804 24.8571 31.1121 20.5714 31.1121 20.5714H31.4613V28H19.6836V27.5873H21.8106V0.380952H19.6836V0H27.0804V0.412698H25.1439Z" fill="#8B8B8B"/>
<path fill-rule="evenodd" clip-rule="evenodd" d="M44.0657 0.412698V27.5556C46.1292 27.5556 47.399 27.4286 48.6053 26.254C50.0022 24.8571 50.0339 20.5714 50.0339 20.5714H50.3831V28H38.6055V27.5873H40.7324V0.380952H38.6055V0H46.0022V0.412698H44.0657Z" fill="#8B8B8B"/>
<path fill-rule="evenodd" clip-rule="evenodd" d="M60.1231 27.5556H57.9961V27.9683H69.7739V20.5397H69.4247C69.4247 20.5397 69.4247 24.8254 67.9961 26.2222C66.7897 27.4286 65.5199 27.5238 63.4564 27.5238V13.8413C63.4564 13.8413 64.885 13.746 65.5834 14.4444C66.6628 15.5238 66.7897 16.9206 66.7897 18.8571H67.1707V8.38095H66.7897C66.7897 10.3175 66.6945 11.7143 65.5834 12.7937C64.885 13.4921 63.4564 13.3968 63.4564 13.3968V0.412698C65.5199 0.412698 66.504 0.539683 67.7104 1.71429C69.1072 3.11111 69.139 7.39683 69.139 7.39683H69.4882V0H57.9961V0.412698H60.1231V27.5556Z" fill="#8B8B8B"/>
</svg>
