<svg width="94" height="25" viewBox="0 0 94 25" fill="none" xmlns="http://www.w3.org/2000/svg">
<path d="M27.2213 0.969918C21.7816 1.00881 17.332 7.0547 17.332 12.3281C17.332 17.8775 20.5937 24.6468 27.2213 24.6249C33.849 24.6029 37.2889 17.3151 37.2889 12.3281C37.2889 6.81956 32.6611 0.931027 27.2213 0.969918ZM27.2213 1.17676C31.7742 1.17676 33.0025 6.20506 33.0025 12.3281C33.0025 20.4073 31.5209 24.3932 27.2213 24.3856C22.9218 24.378 21.5231 21.1157 21.5231 12.3281C21.5231 6.82333 22.6685 1.17676 27.2213 1.17676Z" fill="#8B8B8B"/>
<path d="M39.086 12.4773C39.0616 6.47696 43.864 1.16184 47.9292 0.898133C49.3976 0.794101 51.2852 1.46654 52.3871 1.94557C53.1873 2.29341 54.8208 1.78992 55.1108 0.866211H55.269V9.03977H55.1108C55.1108 8.69132 53.5972 1.10363 47.9292 1.10363C43.7427 1.10363 43.3383 8.46509 43.3383 12.4773C43.3383 16.4894 43.4602 24.4322 48.3457 24.4322C50.7124 24.4322 52.4642 23.3968 52.9183 21.302V14.9327H50.9318V14.6614H58.6319V14.9327H56.7327V24.2446H56.5781C56.5781 24.2446 56.2693 22.901 54.7026 22.9055C52.7001 22.9112 50.8116 24.651 48.5096 24.6298C42.4215 24.5738 39.1104 18.4776 39.086 12.4773Z" fill="#8B8B8B"/>
<path d="M2.39758 1.77512H0V1.50562H8.39884V1.77512H6.29177L12.293 18.0725C14.1695 12.295 15.6233 8.02431 17.5797 1.77512H15.4956V1.50562H19.9302V1.77512H17.9107L10.6169 24.513L2.39758 1.77512Z" fill="#8B8B8B"/>
<path d="M59.8084 18.9463L59.7704 1.74906H57.4883V1.49146H65.8961V1.74906H63.6153L63.666 20.6049C64.1709 22.7641 65.0686 24.4024 68.1355 24.4268C71.2025 24.4512 73.2874 22.6125 74.0623 20.0997V1.74906H71.4516L71.4516 1.49904H92.8195L92.8639 9.75441H92.6586C92.2623 4.42423 90.2056 2.4098 86.6087 1.82212C85.3709 1.6199 84.0725 1.76981 82.431 1.75705V12.2931C83.8604 12.4035 85.383 12.3132 86.4091 11.4319C87.3422 10.6305 87.6059 8.77888 87.6745 8.02666H87.8552V17.2003H87.6597C87.6032 17.2003 87.5281 14.8982 86.4091 13.806C85.2827 12.7067 83.8484 12.4364 82.431 12.6983V23.9531C84.4332 23.9531 86.0291 24.1227 87.4151 23.7427C91.6281 22.5876 93.1112 19.0333 93.0999 15.4685H93.3342V24.2195H76.5737V23.9531H78.4688V1.74906H74.3743V20.0997C73.9102 21.8556 72.2141 24.7603 67.8672 24.7405C63.8256 24.7221 59.8171 22.9 59.8084 18.9463Z" fill="#8B8B8B"/>
</svg>
