<svg width="57" height="28" viewBox="0 0 57 28" fill="none" xmlns="http://www.w3.org/2000/svg">
<path fill-rule="evenodd" clip-rule="evenodd" d="M55.8661 13.9998C55.8865 16.277 55.3364 18.523 54.2662 20.5331L56.1328 22.3998L50.9329 27.5997L49.1996 25.8664C47.1218 27.2508 44.5974 28.0175 41.8663 27.9997C34.4508 28.0197 28.3709 22.2064 27.9998 14.9332C27.4953 22.2064 21.4154 28.0175 13.9999 27.9997C12.1597 28.0059 10.3365 27.648 8.63513 26.9466C6.93381 26.2452 5.38803 25.2142 4.08679 23.913C2.78556 22.6117 1.75457 21.066 1.0532 19.3646C0.351822 17.6633 -0.00608662 15.8401 7.83064e-05 13.9998C-0.0110327 6.30882 6.25112 0.0466662 13.9999 0C16.479 0.0169014 18.909 0.692539 21.0411 1.95769C23.1731 3.22285 24.9305 5.03204 26.1331 7.19992L19.5999 10.9332C18.4443 8.9599 16.3621 7.64881 13.9999 7.59992C10.4489 7.64881 7.59333 10.5088 7.6 13.9998C7.59469 14.8418 7.7566 15.6764 8.07634 16.4553C8.39609 17.2341 8.8673 17.9418 9.46265 18.5371C10.058 19.1325 10.7656 19.6037 11.5445 19.9234C12.3234 20.2432 13.158 20.4051 13.9999 20.3998C16.0221 20.4176 17.8466 19.4509 19.0665 17.9998L14.9333 17.8665V11.9999H27.8664C27.8671 12.1091 27.871 12.2244 27.8751 12.3434C27.8825 12.5632 27.8904 12.7954 27.8791 13.0253C28.4479 5.78526 34.4988 0.0462947 41.8663 0C49.6151 0.0488884 55.8773 6.31104 55.8661 13.9998ZM46.9313 13.7334L48.2646 14.9334C48.2576 14.7761 48.2604 14.6183 48.2634 14.455C48.2661 14.3089 48.2688 14.1584 48.2646 14C48.2735 10.509 45.4158 7.64899 41.8647 7.6001C40.1763 7.62867 38.565 8.31212 37.3709 9.5062C36.1769 10.7003 35.4934 12.3116 35.4648 14C35.5071 17.56 38.3648 20.4177 41.8647 20.4C42.4011 20.4065 42.9368 20.3618 43.4647 20.2666L41.9981 18.9333L46.9313 13.7334Z" fill="#8B8B8B"/>
</svg>
