<svg width="70" height="12" viewBox="0 0 70 12" fill="none" xmlns="http://www.w3.org/2000/svg">
<path d="M7.24659 4.7148L5.85789 0.142944L4.46919 4.7148H0.143066L3.67483 7.23504L2.33184 11.5726L5.85789 8.89233L9.38965 11.5726L8.04666 7.23504L11.5727 4.7148H7.24659Z" fill="white"/>
<path d="M21.8179 4.7148L20.4292 0.142944L19.0405 4.7148H14.7144L18.2461 7.23504L16.9031 11.5726L20.4292 8.89233L23.9609 11.5726L22.618 7.23504L26.144 4.7148H21.8179Z" fill="white"/>
<path d="M36.3887 4.7148L35 0.142944L33.6113 4.7148H29.2852L32.8169 7.23504L31.4739 11.5726L35 8.89233L38.5317 11.5726L37.1888 7.23504L40.7148 4.7148H36.3887Z" fill="white"/>
<path d="M50.96 4.7148L49.5713 0.142944L48.1826 4.7148H43.8564L47.3882 7.23504L46.0452 11.5726L49.5713 8.89233L53.103 11.5726L51.76 7.23504L55.2861 4.7148H50.96Z" fill="white"/>
<path d="M65.5313 4.7148L64.1426 0.142944L62.7539 4.7148H58.4277L61.9595 7.23504L60.6165 11.5726L64.1426 8.89233L67.6743 11.5726L66.3313 7.23504L69.8574 4.7148H65.5313Z" fill="white"/>
</svg>
